# xmcd
#
# Track frame offsets: 
#        150
#        6986
#        22985
#        25432
#        42580
#        43917
#        58242
#        60066
#        78155
#        81100
#        94281
#        96851
#        110753
#        113350
#        128215
#        132652
#        145759
#        149787
#        163103
#        165022
#        177045
#        180180
#        192671
#        203690
#
# Disc length: 2922 seconds
#
# Revision: 1
# Processed by: cddbd v1.5.2PL0 Copyright (c) Steve Scherf et al.
# Submitted via: ExactAudioCopy v0.99pb3
#
DISCID=490b6818
DTITLE=Kane - Acoustic Live in London
DYEAR=2004
DGENRE=Country
TTITLE0=Intro Spirit Boy
TTITLE1=Spirit Boy
TTITLE2=Intro More Than I Deserve
TTITLE3=More Than I Deserve
TTITLE4=Intro The Darkness
TTITLE5=The Darkness
TTITLE6=Intro Middle America
TTITLE7=Middle America
TTITLE8=Intro The Chase
TTITLE9=The Chase
TTITLE10=Intro Mary
TTITLE11=Mary
TTITLE12=Intro American High
TTITLE13=American High
TTITLE14=Intro One More Shot
TTITLE15=One More Shot
TTITLE16=Intro Pinata Novia
TTITLE17=Pinata Novia
TTITLE18=Intro Mama
TTITLE19=Mama
TTITLE20=Intro Track 29
TTITLE21=Track 29
TTITLE22=Intro Seven Days
TTITLE23=Seven Days
EXTD=
EXTT0=
EXTT1=
EXTT2=
EXTT3=
EXTT4=
EXTT5=
EXTT6=
EXTT7=
EXTT8=
EXTT9=
EXTT10=
EXTT11=
EXTT12=
EXTT13=
EXTT14=
EXTT15=
EXTT16=
EXTT17=
EXTT18=
EXTT19=
EXTT20=
EXTT21=
EXTT22=
EXTT23=
PLAYORDER=
